<?xml version="1.0" encoding="UTF-8"?>
<!DOCTYPE svg PUBLIC "-//W3C//DTD SVG 1.1//EN" "http://www.w3.org/Graphics/SVG/1.1/DTD/svg11.dtd">
<svg xmlns="http://www.w3.org/2000/svg" version="1.1" width="133px" height="133px" style="shape-rendering:geometricPrecision; text-rendering:geometricPrecision; image-rendering:optimizeQuality; fill-rule:evenodd; clip-rule:evenodd" xmlns:xlink="http://www.w3.org/1999/xlink">
<g><path style="opacity:0.012" fill="#ffe555" d="M 37.5,7.5 C 40.0009,7.51092 40.1676,8.17759 38,9.5C 37.5357,8.90558 37.369,8.23891 37.5,7.5 Z"/></g>
<g><path style="opacity:0.008" fill="#ffe559" d="M 77.5,13.5 C 77.238,12.0222 77.5713,10.6888 78.5,9.5C 78.8333,10.1667 79.1667,10.8333 79.5,11.5C 79.2528,12.7133 78.5862,13.38 77.5,13.5 Z"/></g>
<g><path style="opacity:0.004" fill="#fee236" d="M 77.5,13.5 C 76.8333,14.1667 76.8333,14.1667 77.5,13.5 Z"/></g>
<g><path style="opacity:0.004" fill="#fedc00" d="M 42.5,17.5 C 42.369,16.7611 42.5357,16.0944 43,15.5C 43.6917,16.4368 43.525,17.1034 42.5,17.5 Z"/></g>
<g><path style="opacity:0.004" fill="#fedb00" d="M 39.5,16.5 C 40.8333,17.1667 40.8333,17.1667 39.5,16.5 Z"/></g>
<g><path style="opacity:0.96" fill="#01c4ff" d="M 31.5,18.5 C 24.1386,24.5208 16.4719,30.1874 8.5,35.5C 5.73695,30.2985 2.73695,25.2985 -0.5,20.5C -0.5,18.5 -0.5,16.5 -0.5,14.5C 0.74213,13.9566 2.07546,13.6233 3.5,13.5C 12.8463,15.1695 22.1796,16.8362 31.5,18.5 Z"/></g>
<g><path style="opacity:0.004" fill="#feda00" d="M 36.5,17.5 C 37.8333,18.1667 37.8333,18.1667 36.5,17.5 Z"/></g>
<g><path style="opacity:0.004" fill="#feda00" d="M 42.5,17.5 C 41.8333,18.1667 41.8333,18.1667 42.5,17.5 Z"/></g>
<g><path style="opacity:0.004" fill="#fedd01" d="M 75.5,17.5 C 76.8333,18.1667 76.8333,18.1667 75.5,17.5 Z"/></g>
<g><path style="opacity:0.963" fill="#feda18" d="M 68.5,23.5 C 65.5222,24.4777 63.5222,26.4777 62.5,29.5C 58.9822,29.6974 55.6489,29.0308 52.5,27.5C 49.8738,28.5798 47.3738,28.2464 45,26.5C 43.187,27.6091 42.3537,26.9424 42.5,24.5C 42.8333,23.1667 43.1667,21.8333 43.5,20.5C 45.771,16.1355 48.4377,11.9688 51.5,8C 58.1803,8.62138 64.5136,8.45472 70.5,7.5C 71.931,7.97665 73.2643,8.64331 74.5,9.5C 72.0298,13.9686 70.0298,18.6352 68.5,23.5 Z"/></g>
<g><path style="opacity:0.99" fill="#fed71a" d="M 116.5,15.5 C 110.436,22.5802 105.102,30.2469 100.5,38.5C 99.8333,38.5 99.5,38.8333 99.5,39.5C 97.8297,39.7512 96.3297,40.4178 95,41.5C 94.3162,40.2161 94.4829,39.0495 95.5,38C 92.7897,38.5719 90.123,38.0719 87.5,36.5C 86.5,36.5 85.5,36.5 84.5,36.5C 79.6511,35.8335 74.6511,35.1668 69.5,34.5C 72.6865,30.9843 75.0198,26.9843 76.5,22.5C 78.7629,17.6355 81.7629,13.3021 85.5,9.5C 92.5082,10.4342 99.5082,11.4342 106.5,12.5C 109.489,11.8247 112.489,12.1581 115.5,13.5C 115.863,14.1835 116.196,14.8501 116.5,15.5 Z"/></g>
<g><path style="opacity:0.96" fill="#a369fe" d="M 132.5,14.5 C 132.5,16.5 132.5,18.5 132.5,20.5C 129.5,25.1667 126.5,29.8333 123.5,34.5C 120.816,36.1933 118.149,37.86 115.5,39.5C 110.305,39.8205 105.305,39.4872 100.5,38.5C 105.102,30.2469 110.436,22.5802 116.5,15.5C 120.683,14.9974 124.849,14.3308 129,13.5C 130.256,13.6483 131.423,13.9816 132.5,14.5 Z"/></g>
<g><path style="opacity:1" fill="#7890f6" d="M 76.5,22.5 C 75.0198,26.9843 72.6865,30.9843 69.5,34.5C 74.6511,35.1668 79.6511,35.8335 84.5,36.5C 79.1563,36.334 73.8229,36.5006 68.5,37C 67.5,38 66.5,39 65.5,40C 68.3647,40.1829 71.0314,40.6829 73.5,41.5C 69.4862,41.6655 65.4862,41.4988 61.5,41C 61,40.5 60.5,40 60,39.5C 59.9443,35.9446 60.7777,32.6112 62.5,29.5C 63.5222,26.4777 65.5222,24.4777 68.5,23.5C 71.0545,22.612 73.7212,22.2786 76.5,22.5 Z"/></g>
<g><path style="opacity:1" fill="#fdcb10" d="M 42.5,24.5 C 42.3537,26.9424 43.187,27.6091 45,26.5C 47.3738,28.2464 49.8738,28.5798 52.5,27.5C 55.6489,29.0308 58.9822,29.6974 62.5,29.5C 60.7777,32.6112 59.9443,35.9446 60,39.5C 60.5,40 61,40.5 61.5,41C 65.4862,41.4988 69.4862,41.6655 73.5,41.5C 72.6472,45.0204 70.6472,47.6871 67.5,49.5C 64.2857,49.9157 61.119,49.249 58,47.5C 55.5801,48.4881 53.2467,48.1548 51,46.5C 47.0488,47.0313 43.0488,47.3646 39,47.5C 36.1326,45.7956 33.2993,45.1289 30.5,45.5C 34.7682,38.6275 38.7682,31.6275 42.5,24.5 Z"/></g>
<g><path style="opacity:1" fill="#eba76c" d="M 100.5,38.5 C 105.305,39.4872 110.305,39.8205 115.5,39.5C 115.5,39.8333 115.5,40.1667 115.5,40.5C 109.974,40.8214 104.64,40.4881 99.5,39.5C 99.5,38.8333 99.8333,38.5 100.5,38.5 Z"/></g>
<g><path style="opacity:1" fill="#24acfd" d="M 31.5,18.5 C 33.36,19.0715 35.0267,19.0715 36.5,18.5C 38.5145,19.9238 40.8478,20.5905 43.5,20.5C 43.1667,21.8333 42.8333,23.1667 42.5,24.5C 38.7682,31.6275 34.7682,38.6275 30.5,45.5C 28.8958,46.287 28.2291,47.6203 28.5,49.5C 27.8501,49.1961 27.1835,48.8627 26.5,48.5C 23.9235,49.9431 21.5901,51.6098 19.5,53.5C 15.3457,47.8697 11.679,41.8697 8.5,35.5C 16.4719,30.1874 24.1386,24.5208 31.5,18.5 Z"/></g>
<g><path style="opacity:1" fill="#9578fa" d="M 84.5,36.5 C 85.5,36.5 86.5,36.5 87.5,36.5C 84.0859,42.9969 80.4192,49.3303 76.5,55.5C 75.8333,56.1667 75.1667,56.8333 74.5,57.5C 74.631,56.7611 74.4643,56.0944 74,55.5C 66.1713,62.3199 57.6713,67.9866 48.5,72.5C 54.4559,64.542 60.7893,56.8753 67.5,49.5C 70.6472,47.6871 72.6472,45.0204 73.5,41.5C 71.0314,40.6829 68.3647,40.1829 65.5,40C 66.5,39 67.5,38 68.5,37C 73.8229,36.5006 79.1563,36.334 84.5,36.5 Z"/></g>
<g><path style="opacity:1" fill="#fdbd13" d="M 30.5,45.5 C 33.2993,45.1289 36.1326,45.7956 39,47.5C 43.0488,47.3646 47.0488,47.0313 51,46.5C 53.2467,48.1548 55.5801,48.4881 58,47.5C 61.119,49.249 64.2857,49.9157 67.5,49.5C 60.7893,56.8753 54.4559,64.542 48.5,72.5C 44.4932,76.6545 40.8265,81.1545 37.5,86C 38.056,86.3826 38.3893,86.8826 38.5,87.5C 34.3802,90.9706 31.3802,95.304 29.5,100.5C 25.8555,98.9213 25.6888,96.9213 29,94.5C 29.98,89.2433 31.48,84.2433 33.5,79.5C 34.5585,78.3998 35.3918,77.0664 36,75.5C 36.7371,71.1296 37.5704,66.7962 38.5,62.5C 40.2451,59.1145 40.7451,55.4479 40,51.5C 36.3496,49.9538 32.5162,49.2871 28.5,49.5C 28.2291,47.6203 28.8958,46.287 30.5,45.5 Z"/></g>
<g><path style="opacity:1" fill="#fec50f" d="M 87.5,36.5 C 90.123,38.0719 92.7897,38.5719 95.5,38C 94.4829,39.0495 94.3162,40.2161 95,41.5C 96.3297,40.4178 97.8297,39.7512 99.5,39.5C 104.64,40.4881 109.974,40.8214 115.5,40.5C 108.836,47.1293 101.503,53.7959 93.5,60.5C 91.0637,60.683 88.897,60.0163 87,58.5C 83.6506,58.7461 80.1506,58.7461 76.5,58.5C 76.5,57.5 76.5,56.5 76.5,55.5C 80.4192,49.3303 84.0859,42.9969 87.5,36.5 Z"/></g>
<g><path style="opacity:0.977" fill="#be52fb" d="M 123.5,34.5 C 118.924,44.6568 113.591,54.3234 107.5,63.5C 91.2254,75.3146 74.8921,87.1479 58.5,99C 56.6547,100.128 54.6547,100.628 52.5,100.5C 52.719,99.325 52.3857,98.325 51.5,97.5C 49.6396,98.2599 47.973,99.2599 46.5,100.5C 45.0937,100.027 44.427,99.0269 44.5,97.5C 48.1235,95.0493 51.6235,92.3826 55,89.5C 55.4643,90.0944 55.631,90.7611 55.5,91.5C 54.8443,93.484 54.1776,95.484 53.5,97.5C 53.7332,98.9317 54.3999,99.4317 55.5,99C 67.6998,85.634 80.3665,72.8007 93.5,60.5C 101.503,53.7959 108.836,47.1293 115.5,40.5C 115.5,40.1667 115.5,39.8333 115.5,39.5C 118.149,37.86 120.816,36.1933 123.5,34.5 Z"/></g>
<g><path style="opacity:0.948" fill="#6891fd" d="M 28.5,49.5 C 32.5162,49.2871 36.3496,49.9538 40,51.5C 40.7451,55.4479 40.2451,59.1145 38.5,62.5C 38.719,61.325 38.3857,60.325 37.5,59.5C 33.8346,61.8407 30.5012,64.5074 27.5,67.5C 24.331,63.167 21.6643,58.5003 19.5,53.5C 21.5901,51.6098 23.9235,49.9431 26.5,48.5C 27.1835,48.8627 27.8501,49.1961 28.5,49.5 Z"/></g>
<g><path style="opacity:0.97" fill="#8883f8" d="M 38.5,62.5 C 37.5704,66.7962 36.7371,71.1296 36,75.5C 35.3918,77.0664 34.5585,78.3998 33.5,79.5C 33.0679,78.2905 32.4013,77.2905 31.5,76.5C 31.6716,75.5084 31.3382,74.8417 30.5,74.5C 29.2271,72.2872 28.2271,69.9538 27.5,67.5C 30.5012,64.5074 33.8346,61.8407 37.5,59.5C 38.3857,60.325 38.719,61.325 38.5,62.5 Z"/></g>
<g><path style="opacity:1" fill="#feb31a" d="M 76.5,55.5 C 76.5,56.5 76.5,57.5 76.5,58.5C 80.1506,58.7461 83.6506,58.7461 87,58.5C 88.897,60.0163 91.0637,60.683 93.5,60.5C 80.3665,72.8007 67.6998,85.634 55.5,99C 54.3999,99.4317 53.7332,98.9317 53.5,97.5C 54.1776,95.484 54.8443,93.484 55.5,91.5C 61.2825,79.9426 67.6158,68.6092 74.5,57.5C 75.1667,56.8333 75.8333,56.1667 76.5,55.5 Z"/></g>
<g><path style="opacity:0.972" fill="#c944fe" d="M 107.5,63.5 C 105.1,68.6318 102.434,73.6318 99.5,78.5C 83.6859,89.5791 68.0192,100.912 52.5,112.5C 50.0661,108.728 48.0661,104.728 46.5,100.5C 47.973,99.2599 49.6396,98.2599 51.5,97.5C 52.3857,98.325 52.719,99.325 52.5,100.5C 54.6547,100.628 56.6547,100.128 58.5,99C 74.8921,87.1479 91.2254,75.3146 107.5,63.5 Z"/></g>
<g><path style="opacity:0.982" fill="#aa64fc" d="M 74.5,57.5 C 67.6158,68.6092 61.2825,79.9426 55.5,91.5C 55.631,90.7611 55.4643,90.0944 55,89.5C 51.6235,92.3826 48.1235,95.0493 44.5,97.5C 42.1373,94.4512 40.1373,91.1178 38.5,87.5C 38.3893,86.8826 38.056,86.3826 37.5,86C 40.8265,81.1545 44.4932,76.6545 48.5,72.5C 57.6713,67.9866 66.1713,62.3199 74,55.5C 74.4643,56.0944 74.631,56.7611 74.5,57.5 Z"/></g>
<g><path style="opacity:0.007" fill="#ffb900" d="M 30.5,74.5 C 31.3382,74.8417 31.6716,75.5084 31.5,76.5C 30.7326,77.172 30.0659,78.0053 29.5,79C 30.4239,79.85 30.4239,80.85 29.5,82C 29.1501,83.2575 28.4835,83.5908 27.5,83C 28.1936,79.9751 29.1936,77.1418 30.5,74.5 Z"/></g>
<g><path style="opacity:0.956" fill="#d537fe" d="M 99.5,78.5 C 96.0708,85.0323 92.4041,91.3657 88.5,97.5C 77.8549,104.821 67.5216,112.488 57.5,120.5C 55.8474,117.869 54.1807,115.203 52.5,112.5C 68.0192,100.912 83.6859,89.5791 99.5,78.5 Z"/></g>
<g><path style="opacity:0.92" fill="#da31ff" d="M 88.5,97.5 C 82.4332,109.299 76.0999,120.966 69.5,132.5C 67.8333,132.5 66.1667,132.5 64.5,132.5C 61.662,128.828 59.3287,124.828 57.5,120.5C 67.5216,112.488 77.8549,104.821 88.5,97.5 Z"/></g>
</svg>
